<svg xmlns="http://www.w3.org/2000/svg" version="1.1" xmlns:xlink="http://www.w3.org/1999/xlink" xmlns:svgjs="http://svgjs.dev/svgjs" viewBox="0 0 800 800">

    <g fill="none" stroke-width="8.75" stroke="hsl(28, 100%, 71%)" stroke-linecap="round" transform="matrix(0.9,0,0,0.9,39.99999885559083,39.99999828338622)"><line x1="123.5" y1="400" x2="676.5" y2="400" transform="rotate(0, 400, 400)" opacity="0.44"></line><line x1="-24.5" y1="400" x2="824.5" y2="400" transform="rotate(3, 400, 400)" opacity="0.79"></line><line x1="78.5" y1="400" x2="721.5" y2="400" transform="rotate(6, 400, 400)" opacity="0.32"></line><line x1="160.5" y1="400" x2="639.5" y2="400" transform="rotate(9, 400, 400)" opacity="0.53"></line><line x1="-29" y1="400" x2="829" y2="400" transform="rotate(12, 400, 400)" opacity="0.73"></line><line x1="107.5" y1="400" x2="692.5" y2="400" transform="rotate(15, 400, 400)" opacity="0.97"></line><line x1="183.5" y1="400" x2="616.5" y2="400" transform="rotate(18, 400, 400)" opacity="0.79"></line><line x1="181.5" y1="400" x2="618.5" y2="400" transform="rotate(21, 400, 400)" opacity="0.72"></line><line x1="125.5" y1="400" x2="674.5" y2="400" transform="rotate(24, 400, 400)" opacity="0.80"></line><line x1="99" y1="400" x2="701" y2="400" transform="rotate(27, 400, 400)" opacity="0.21"></line><line x1="96" y1="400" x2="704" y2="400" transform="rotate(30, 400, 400)" opacity="0.17"></line><line x1="24.5" y1="400" x2="775.5" y2="400" transform="rotate(33, 400, 400)" opacity="0.67"></line><line x1="-14" y1="400" x2="814" y2="400" transform="rotate(36, 400, 400)" opacity="0.19"></line><line x1="101.5" y1="400" x2="698.5" y2="400" transform="rotate(39, 400, 400)" opacity="0.93"></line><line x1="166" y1="400" x2="634" y2="400" transform="rotate(42, 400, 400)" opacity="0.19"></line><line x1="-18" y1="400" x2="818" y2="400" transform="rotate(45, 400, 400)" opacity="0.79"></line><line x1="51" y1="400" x2="749" y2="400" transform="rotate(48, 400, 400)" opacity="0.46"></line><line x1="25.5" y1="400" x2="774.5" y2="400" transform="rotate(51, 400, 400)" opacity="0.48"></line><line x1="146" y1="400" x2="654" y2="400" transform="rotate(54, 400, 400)" opacity="0.31"></line><line x1="174" y1="400" x2="626" y2="400" transform="rotate(57, 400, 400)" opacity="0.61"></line><line x1="100" y1="400" x2="700" y2="400" transform="rotate(60, 400, 400)" opacity="0.09"></line><line x1="141" y1="400" x2="659" y2="400" transform="rotate(63, 400, 400)" opacity="0.87"></line><line x1="-15" y1="400" x2="815" y2="400" transform="rotate(66, 400, 400)" opacity="0.23"></line><line x1="-16.5" y1="400" x2="816.5" y2="400" transform="rotate(69, 400, 400)" opacity="0.92"></line><line x1="-19" y1="400" x2="819" y2="400" transform="rotate(72, 400, 400)" opacity="0.21"></line><line x1="68.5" y1="400" x2="731.5" y2="400" transform="rotate(75, 400, 400)" opacity="0.70"></line><line x1="188.5" y1="400" x2="611.5" y2="400" transform="rotate(78, 400, 400)" opacity="0.13"></line><line x1="-14" y1="400" x2="814" y2="400" transform="rotate(81, 400, 400)" opacity="0.95"></line><line x1="101" y1="400" x2="699" y2="400" transform="rotate(84, 400, 400)" opacity="0.10"></line><line x1="190" y1="400" x2="610" y2="400" transform="rotate(87, 400, 400)" opacity="0.25"></line><line x1="10" y1="400" x2="790" y2="400" transform="rotate(90, 400, 400)" opacity="0.87"></line><line x1="182" y1="400" x2="618" y2="400" transform="rotate(93, 400, 400)" opacity="0.89"></line><line x1="181" y1="400" x2="619" y2="400" transform="rotate(96, 400, 400)" opacity="0.69"></line><line x1="117.5" y1="400" x2="682.5" y2="400" transform="rotate(99, 400, 400)" opacity="0.94"></line><line x1="19" y1="400" x2="781" y2="400" transform="rotate(102, 400, 400)" opacity="0.55"></line><line x1="-31" y1="400" x2="831" y2="400" transform="rotate(105, 400, 400)" opacity="0.30"></line><line x1="199" y1="400" x2="601" y2="400" transform="rotate(108, 400, 400)" opacity="0.65"></line><line x1="162.5" y1="400" x2="637.5" y2="400" transform="rotate(111, 400, 400)" opacity="0.09"></line><line x1="15.5" y1="400" x2="784.5" y2="400" transform="rotate(114, 400, 400)" opacity="0.94"></line><line x1="-13.5" y1="400" x2="813.5" y2="400" transform="rotate(117, 400, 400)" opacity="0.63"></line><line x1="181.5" y1="400" x2="618.5" y2="400" transform="rotate(120, 400, 400)" opacity="0.91"></line><line x1="181.5" y1="400" x2="618.5" y2="400" transform="rotate(123, 400, 400)" opacity="0.45"></line><line x1="147" y1="400" x2="653" y2="400" transform="rotate(126, 400, 400)" opacity="0.18"></line><line x1="36.5" y1="400" x2="763.5" y2="400" transform="rotate(129, 400, 400)" opacity="0.39"></line><line x1="27" y1="400" x2="773" y2="400" transform="rotate(132, 400, 400)" opacity="0.56"></line><line x1="-30.5" y1="400" x2="830.5" y2="400" transform="rotate(135, 400, 400)" opacity="0.84"></line><line x1="-25.5" y1="400" x2="825.5" y2="400" transform="rotate(138, 400, 400)" opacity="0.94"></line><line x1="179.5" y1="400" x2="620.5" y2="400" transform="rotate(141, 400, 400)" opacity="0.15"></line><line x1="72.5" y1="400" x2="727.5" y2="400" transform="rotate(144, 400, 400)" opacity="0.74"></line><line x1="60" y1="400" x2="740" y2="400" transform="rotate(147, 400, 400)" opacity="0.61"></line><line x1="49" y1="400" x2="751" y2="400" transform="rotate(150, 400, 400)" opacity="0.85"></line><line x1="121.5" y1="400" x2="678.5" y2="400" transform="rotate(153, 400, 400)" opacity="0.35"></line><line x1="51.5" y1="400" x2="748.5" y2="400" transform="rotate(156, 400, 400)" opacity="0.11"></line><line x1="67" y1="400" x2="733" y2="400" transform="rotate(159, 400, 400)" opacity="0.52"></line><line x1="39" y1="400" x2="761" y2="400" transform="rotate(162, 400, 400)" opacity="0.83"></line><line x1="148.5" y1="400" x2="651.5" y2="400" transform="rotate(165, 400, 400)" opacity="0.70"></line><line x1="160" y1="400" x2="640" y2="400" transform="rotate(168, 400, 400)" opacity="0.82"></line><line x1="143" y1="400" x2="657" y2="400" transform="rotate(171, 400, 400)" opacity="0.53"></line><line x1="34" y1="400" x2="766" y2="400" transform="rotate(174, 400, 400)" opacity="0.96"></line><line x1="-16" y1="400" x2="816" y2="400" transform="rotate(177, 400, 400)" opacity="0.48"></line><line x1="137" y1="400" x2="663" y2="400" transform="rotate(180, 400, 400)" opacity="0.63"></line><line x1="186" y1="400" x2="614" y2="400" transform="rotate(183, 400, 400)" opacity="1.00"></line><line x1="90.5" y1="400" x2="709.5" y2="400" transform="rotate(186, 400, 400)" opacity="0.57"></line><line x1="181.5" y1="400" x2="618.5" y2="400" transform="rotate(189, 400, 400)" opacity="0.39"></line><line x1="1.5" y1="400" x2="798.5" y2="400" transform="rotate(192, 400, 400)" opacity="0.80"></line><line x1="88" y1="400" x2="712" y2="400" transform="rotate(195, 400, 400)" opacity="0.31"></line><line x1="46" y1="400" x2="754" y2="400" transform="rotate(198, 400, 400)" opacity="0.99"></line><line x1="14" y1="400" x2="786" y2="400" transform="rotate(201, 400, 400)" opacity="0.40"></line><line x1="89" y1="400" x2="711" y2="400" transform="rotate(204, 400, 400)" opacity="0.17"></line><line x1="108.5" y1="400" x2="691.5" y2="400" transform="rotate(207, 400, 400)" opacity="0.29"></line><line x1="119" y1="400" x2="681" y2="400" transform="rotate(210, 400, 400)" opacity="0.32"></line><line x1="124" y1="400" x2="676" y2="400" transform="rotate(213, 400, 400)" opacity="0.14"></line><line x1="197.5" y1="400" x2="602.5" y2="400" transform="rotate(216, 400, 400)" opacity="0.77"></line><line x1="96" y1="400" x2="704" y2="400" transform="rotate(219, 400, 400)" opacity="0.89"></line><line x1="124.5" y1="400" x2="675.5" y2="400" transform="rotate(222, 400, 400)" opacity="0.67"></line><line x1="55" y1="400" x2="745" y2="400" transform="rotate(225, 400, 400)" opacity="0.99"></line><line x1="55" y1="400" x2="745" y2="400" transform="rotate(228, 400, 400)" opacity="0.72"></line><line x1="168.5" y1="400" x2="631.5" y2="400" transform="rotate(231, 400, 400)" opacity="0.84"></line><line x1="32" y1="400" x2="768" y2="400" transform="rotate(234, 400, 400)" opacity="0.66"></line><line x1="176.5" y1="400" x2="623.5" y2="400" transform="rotate(237, 400, 400)" opacity="0.98"></line><line x1="3.5" y1="400" x2="796.5" y2="400" transform="rotate(240, 400, 400)" opacity="0.17"></line><line x1="165" y1="400" x2="635" y2="400" transform="rotate(243, 400, 400)" opacity="0.18"></line><line x1="-20.5" y1="400" x2="820.5" y2="400" transform="rotate(246, 400, 400)" opacity="0.18"></line><line x1="177.5" y1="400" x2="622.5" y2="400" transform="rotate(249, 400, 400)" opacity="0.91"></line><line x1="82.5" y1="400" x2="717.5" y2="400" transform="rotate(252, 400, 400)" opacity="0.21"></line><line x1="191" y1="400" x2="609" y2="400" transform="rotate(255, 400, 400)" opacity="0.76"></line><line x1="-0.5" y1="400" x2="800.5" y2="400" transform="rotate(258, 400, 400)" opacity="0.82"></line><line x1="162.5" y1="400" x2="637.5" y2="400" transform="rotate(261, 400, 400)" opacity="0.99"></line><line x1="178" y1="400" x2="622" y2="400" transform="rotate(264, 400, 400)" opacity="0.72"></line><line x1="39.5" y1="400" x2="760.5" y2="400" transform="rotate(267, 400, 400)" opacity="0.12"></line><line x1="136" y1="400" x2="664" y2="400" transform="rotate(270, 400, 400)" opacity="0.36"></line><line x1="18" y1="400" x2="782" y2="400" transform="rotate(273, 400, 400)" opacity="0.82"></line><line x1="178.5" y1="400" x2="621.5" y2="400" transform="rotate(276, 400, 400)" opacity="0.78"></line><line x1="122" y1="400" x2="678" y2="400" transform="rotate(279, 400, 400)" opacity="0.39"></line><line x1="-28.5" y1="400" x2="828.5" y2="400" transform="rotate(282, 400, 400)" opacity="0.91"></line><line x1="21.5" y1="400" x2="778.5" y2="400" transform="rotate(285, 400, 400)" opacity="0.20"></line><line x1="93" y1="400" x2="707" y2="400" transform="rotate(288, 400, 400)" opacity="0.72"></line><line x1="115.5" y1="400" x2="684.5" y2="400" transform="rotate(291, 400, 400)" opacity="0.87"></line><line x1="132" y1="400" x2="668" y2="400" transform="rotate(294, 400, 400)" opacity="0.84"></line><line x1="86" y1="400" x2="714" y2="400" transform="rotate(297, 400, 400)" opacity="0.98"></line><line x1="95" y1="400" x2="705" y2="400" transform="rotate(300, 400, 400)" opacity="0.60"></line><line x1="67.5" y1="400" x2="732.5" y2="400" transform="rotate(303, 400, 400)" opacity="0.60"></line><line x1="13.5" y1="400" x2="786.5" y2="400" transform="rotate(306, 400, 400)" opacity="0.77"></line><line x1="75" y1="400" x2="725" y2="400" transform="rotate(309, 400, 400)" opacity="0.08"></line><line x1="173" y1="400" x2="627" y2="400" transform="rotate(312, 400, 400)" opacity="0.57"></line><line x1="53" y1="400" x2="747" y2="400" transform="rotate(315, 400, 400)" opacity="0.89"></line><line x1="168.5" y1="400" x2="631.5" y2="400" transform="rotate(318, 400, 400)" opacity="0.95"></line><line x1="127.5" y1="400" x2="672.5" y2="400" transform="rotate(321, 400, 400)" opacity="0.26"></line><line x1="191" y1="400" x2="609" y2="400" transform="rotate(324, 400, 400)" opacity="0.86"></line><line x1="-18.5" y1="400" x2="818.5" y2="400" transform="rotate(327, 400, 400)" opacity="0.50"></line><line x1="174.5" y1="400" x2="625.5" y2="400" transform="rotate(330, 400, 400)" opacity="0.69"></line><line x1="-20" y1="400" x2="820" y2="400" transform="rotate(333, 400, 400)" opacity="0.47"></line><line x1="48" y1="400" x2="752" y2="400" transform="rotate(336, 400, 400)" opacity="0.78"></line><line x1="-7.5" y1="400" x2="807.5" y2="400" transform="rotate(339, 400, 400)" opacity="0.72"></line><line x1="172.5" y1="400" x2="627.5" y2="400" transform="rotate(342, 400, 400)" opacity="0.32"></line><line x1="121" y1="400" x2="679" y2="400" transform="rotate(345, 400, 400)" opacity="0.83"></line><line x1="195.5" y1="400" x2="604.5" y2="400" transform="rotate(348, 400, 400)" opacity="0.35"></line><line x1="-2" y1="400" x2="802" y2="400" transform="rotate(351, 400, 400)" opacity="0.30"></line><line x1="112.5" y1="400" x2="687.5" y2="400" transform="rotate(354, 400, 400)" opacity="0.74"></line><line x1="-26" y1="400" x2="826" y2="400" transform="rotate(357, 400, 400)" opacity="0.94"></line><line x1="21" y1="400" x2="779" y2="400" transform="rotate(360, 400, 400)" opacity="0.35"></line><line x1="-36" y1="400" x2="836" y2="400" transform="rotate(363, 400, 400)" opacity="0.37"></line><line x1="154" y1="400" x2="646" y2="400" transform="rotate(366, 400, 400)" opacity="0.69"></line><line x1="137.5" y1="400" x2="662.5" y2="400" transform="rotate(369, 400, 400)" opacity="0.94"></line><line x1="114.5" y1="400" x2="685.5" y2="400" transform="rotate(372, 400, 400)" opacity="0.17"></line><line x1="125" y1="400" x2="675" y2="400" transform="rotate(375, 400, 400)" opacity="0.85"></line><line x1="-25.5" y1="400" x2="825.5" y2="400" transform="rotate(378, 400, 400)" opacity="0.38"></line><line x1="70" y1="400" x2="730" y2="400" transform="rotate(381, 400, 400)" opacity="0.86"></line><line x1="73.5" y1="400" x2="726.5" y2="400" transform="rotate(384, 400, 400)" opacity="0.78"></line><line x1="173.5" y1="400" x2="626.5" y2="400" transform="rotate(387, 400, 400)" opacity="0.90"></line><line x1="58" y1="400" x2="742" y2="400" transform="rotate(390, 400, 400)" opacity="0.18"></line><line x1="165.5" y1="400" x2="634.5" y2="400" transform="rotate(393, 400, 400)" opacity="0.32"></line><line x1="-15.5" y1="400" x2="815.5" y2="400" transform="rotate(396, 400, 400)" opacity="0.66"></line></g>
</svg>